<svg width="300" height="93" viewBox="0 0 300 93" fill="none" xmlns="http://www.w3.org/2000/svg">
<path fill-rule="evenodd" clip-rule="evenodd" d="M0 9.99999C0 4.47715 4.47715 0 10 0H290C295.523 0 300 4.47715 300 10V61.4342H299.995V88.1035C299.995 89.7836 299.995 90.6237 299.668 91.2654C299.38 91.8299 298.921 92.2889 298.357 92.5765C297.715 92.9035 296.875 92.9035 295.195 92.9035H294.45C292.77 92.9035 291.93 92.9035 291.288 92.5765C290.724 92.2889 290.265 91.8299 289.977 91.2654C289.65 90.6237 289.65 89.7836 289.65 88.1035V55.6696C289.65 55.2482 289.65 54.8797 289.655 54.5539V40.5672C289.655 37.8057 287.417 35.5672 284.655 35.5672H0V9.99999Z" fill="#B3E1D1"/>
</svg>
