<svg width="110" height="110" viewBox="0 0 110 110" fill="none" xmlns="http://www.w3.org/2000/svg">
<mask id="path-1-inside-1" fill="white">
<path fill-rule="evenodd" clip-rule="evenodd" d="M8 4C8 1.79086 6.20914 0 4 0C1.79086 0 0 1.79086 0 4V106C0 108.209 1.79086 110 4 110C6.20914 110 8 108.209 8 106V90H16.5798C18.3009 95.783 23.658 100 30 100C36.342 100 41.6991 95.783 43.4202 90H106C108.209 90 110 88.2091 110 86C110 83.7909 108.209 82 106 82H43.4202C41.6991 76.217 36.342 72 30 72C23.658 72 18.3009 76.217 16.5798 82H8V59H67.5798C69.3009 64.783 74.658 69 81 69C87.342 69 92.6991 64.783 94.4202 59H106C108.209 59 110 57.2091 110 55C110 52.7909 108.209 51 106 51H94.4202C92.6991 45.217 87.342 41 81 41C74.658 41 69.3009 45.217 67.5798 51H8V28H35.9193C37.9321 33.2627 43.0296 37 49 37C54.9704 37 60.0679 33.2627 62.0807 28H106C108.209 28 110 26.2091 110 24C110 21.7909 108.209 20 106 20H62.6778C61.3045 13.7096 55.7022 9 49 9C42.2978 9 36.6955 13.7096 35.3222 20H8V4ZM49 29C52.3137 29 55 26.3137 55 23C55 19.6863 52.3137 17 49 17C45.6863 17 43 19.6863 43 23C43 26.3137 45.6863 29 49 29ZM87 55C87 58.3137 84.3137 61 81 61C77.6863 61 75 58.3137 75 55C75 51.6863 77.6863 49 81 49C84.3137 49 87 51.6863 87 55ZM30 92C33.3137 92 36 89.3137 36 86C36 82.6863 33.3137 80 30 80C26.6863 80 24 82.6863 24 86C24 89.3137 26.6863 92 30 92Z"/>
</mask>
<path fill-rule="evenodd" clip-rule="evenodd" d="M8 4C8 1.79086 6.20914 0 4 0C1.79086 0 0 1.79086 0 4V106C0 108.209 1.79086 110 4 110C6.20914 110 8 108.209 8 106V90H16.5798C18.3009 95.783 23.658 100 30 100C36.342 100 41.6991 95.783 43.4202 90H106C108.209 90 110 88.2091 110 86C110 83.7909 108.209 82 106 82H43.4202C41.6991 76.217 36.342 72 30 72C23.658 72 18.3009 76.217 16.5798 82H8V59H67.5798C69.3009 64.783 74.658 69 81 69C87.342 69 92.6991 64.783 94.4202 59H106C108.209 59 110 57.2091 110 55C110 52.7909 108.209 51 106 51H94.4202C92.6991 45.217 87.342 41 81 41C74.658 41 69.3009 45.217 67.5798 51H8V28H35.9193C37.9321 33.2627 43.0296 37 49 37C54.9704 37 60.0679 33.2627 62.0807 28H106C108.209 28 110 26.2091 110 24C110 21.7909 108.209 20 106 20H62.6778C61.3045 13.7096 55.7022 9 49 9C42.2978 9 36.6955 13.7096 35.3222 20H8V4ZM49 29C52.3137 29 55 26.3137 55 23C55 19.6863 52.3137 17 49 17C45.6863 17 43 19.6863 43 23C43 26.3137 45.6863 29 49 29ZM87 55C87 58.3137 84.3137 61 81 61C77.6863 61 75 58.3137 75 55C75 51.6863 77.6863 49 81 49C84.3137 49 87 51.6863 87 55ZM30 92C33.3137 92 36 89.3137 36 86C36 82.6863 33.3137 80 30 80C26.6863 80 24 82.6863 24 86C24 89.3137 26.6863 92 30 92Z" fill="#316C7A"/>
<path d="M8 90V82H0V90H8ZM16.5798 90L24.2474 87.718L22.5456 82H16.5798V90ZM43.4202 90V82H37.4544L35.7526 87.718L43.4202 90ZM43.4202 82L35.7526 84.282L37.4544 90H43.4202V82ZM16.5798 82V90H22.5456L24.2474 84.282L16.5798 82ZM8 82H0V90H8V82ZM8 59V51H0V59H8ZM67.5798 59L75.2474 56.718L73.5456 51H67.5798V59ZM94.4202 59V51H88.4544L86.7526 56.718L94.4202 59ZM94.4202 51L86.7526 53.282L88.4544 59H94.4202V51ZM67.5798 51V59H73.5456L75.2474 53.282L67.5798 51ZM8 51H0V59H8V51ZM8 28V20H0V28H8ZM35.9193 28L43.3914 25.1421L41.4247 20H35.9193V28ZM62.0807 28V20H56.5753L54.6086 25.1421L62.0807 28ZM62.6778 20L54.8619 21.7064L56.236 28H62.6778V20ZM35.3222 20V28H41.764L43.1381 21.7064L35.3222 20ZM8 20H0V28H8V20ZM4 8C1.79086 8 0 6.20914 0 4H16C16 -2.62742 10.6274 -8 4 -8V8ZM8 4C8 6.20914 6.20914 8 4 8V-8C-2.62742 -8 -8 -2.62742 -8 4H8ZM8 106V4H-8V106H8ZM4 102C6.20914 102 8 103.791 8 106H-8C-8 112.627 -2.62742 118 4 118V102ZM0 106C0 103.791 1.79086 102 4 102V118C10.6274 118 16 112.627 16 106H0ZM0 90V106H16V90H0ZM16.5798 82H8V98H16.5798V82ZM30 92C27.2938 92 24.9867 90.2021 24.2474 87.718L8.91213 92.282C11.615 101.364 20.0221 108 30 108V92ZM35.7526 87.718C35.0133 90.2021 32.7062 92 30 92V108C39.9779 108 48.385 101.364 51.0879 92.282L35.7526 87.718ZM106 82H43.4202V98H106V82ZM102 86C102 83.7909 103.791 82 106 82V98C112.627 98 118 92.6274 118 86H102ZM106 90C103.791 90 102 88.2091 102 86H118C118 79.3726 112.627 74 106 74V90ZM43.4202 90H106V74H43.4202V90ZM30 80C32.7062 80 35.0133 81.7979 35.7526 84.282L51.0879 79.718C48.385 70.6361 39.9779 64 30 64V80ZM24.2474 84.282C24.9867 81.7979 27.2938 80 30 80V64C20.0221 64 11.615 70.6361 8.91213 79.718L24.2474 84.282ZM8 90H16.5798V74H8V90ZM0 59V82H16V59H0ZM67.5798 51H8V67H67.5798V51ZM81 61C78.2938 61 75.9867 59.2021 75.2474 56.718L59.9121 61.282C62.615 70.3639 71.0221 77 81 77V61ZM86.7526 56.718C86.0133 59.2021 83.7062 61 81 61V77C90.9779 77 99.385 70.3639 102.088 61.282L86.7526 56.718ZM106 51H94.4202V67H106V51ZM102 55C102 52.7909 103.791 51 106 51V67C112.627 67 118 61.6274 118 55H102ZM106 59C103.791 59 102 57.2091 102 55H118C118 48.3726 112.627 43 106 43V59ZM94.4202 59H106V43H94.4202V59ZM81 49C83.7062 49 86.0133 50.7979 86.7526 53.282L102.088 48.718C99.385 39.6361 90.9779 33 81 33V49ZM75.2474 53.282C75.9867 50.7979 78.2938 49 81 49V33C71.0221 33 62.615 39.6361 59.9121 48.718L75.2474 53.282ZM8 59H67.5798V43H8V59ZM0 28V51H16V28H0ZM35.9193 20H8V36H35.9193V20ZM49 29C46.4539 29 44.259 27.4107 43.3914 25.1421L28.4471 30.8579C31.6052 39.1148 39.6053 45 49 45V29ZM54.6086 25.1421C53.741 27.4107 51.5461 29 49 29V45C58.3947 45 66.3948 39.1148 69.5529 30.8579L54.6086 25.1421ZM106 20H62.0807V36H106V20ZM102 24C102 21.7909 103.791 20 106 20V36C112.627 36 118 30.6274 118 24H102ZM106 28C103.791 28 102 26.2091 102 24H118C118 17.3726 112.627 12 106 12V28ZM62.6778 28H106V12H62.6778V28ZM49 17C51.8626 17 54.2738 19.0125 54.8619 21.7064L70.4937 18.2936C68.3352 8.40674 59.5419 1 49 1V17ZM43.1381 21.7064C43.7262 19.0125 46.1374 17 49 17V1C38.4581 1 29.6648 8.40674 27.5063 18.2936L43.1381 21.7064ZM8 28H35.3222V12H8V28ZM0 4V20H16V4H0ZM47 23C47 21.8954 47.8954 21 49 21V37C56.732 37 63 30.732 63 23H47ZM49 25C47.8954 25 47 24.1046 47 23H63C63 15.268 56.732 9 49 9V25ZM51 23C51 24.1046 50.1046 25 49 25V9C41.268 9 35 15.268 35 23H51ZM49 21C50.1046 21 51 21.8954 51 23H35C35 30.732 41.268 37 49 37V21ZM81 69C88.732 69 95 62.732 95 55H79C79 53.8954 79.8954 53 81 53V69ZM67 55C67 62.732 73.268 69 81 69V53C82.1046 53 83 53.8954 83 55H67ZM81 41C73.268 41 67 47.268 67 55H83C83 56.1046 82.1046 57 81 57V41ZM95 55C95 47.268 88.732 41 81 41V57C79.8954 57 79 56.1046 79 55H95ZM28 86C28 84.8954 28.8954 84 30 84V100C37.732 100 44 93.732 44 86H28ZM30 88C28.8954 88 28 87.1046 28 86H44C44 78.268 37.732 72 30 72V88ZM32 86C32 87.1046 31.1046 88 30 88V72C22.268 72 16 78.268 16 86H32ZM30 84C31.1046 84 32 84.8954 32 86H16C16 93.732 22.268 100 30 100V84Z" fill="#316C7A" mask="url(#path-1-inside-1)"/>
</svg>
